<?xml version="1.0" encoding="utf-8"?>
<!-- Generator: Adobe Illustrator 24.2.1, SVG Export Plug-In . SVG Version: 6.00 Build 0)  -->
<svg version="1.1" id="Layer_1" xmlns="http://www.w3.org/2000/svg" xmlns:xlink="http://www.w3.org/1999/xlink" x="0px" y="0px"
	 viewBox="0 0 600 400" style="enable-background:new 0 0 600 400;" xml:space="preserve">
<style type="text/css">
	.st0{fill:#FFFFFF;}
	.st1{opacity:6.000000e-02;fill:#2563EB;enable-background:new    ;}
	.st2{fill:#2563EB;}
	.st3{font-family:'Poppins-Regular';}
	.st4{font-size:28px;}
	.st5{fill:#FFFFFF;stroke:#E5E7EB;}
</style>
<rect class="st0" width="600" height="400"/>
<path class="st1" d="M34,20h532c7.7,0,14,6.3,14,14v332c0,7.7-6.3,14-14,14H34c-7.7,0-14-6.3-14-14V34C20,26.3,26.3,20,34,20z"/>
<text transform="matrix(1 0 0 1 40 80)" class="st2 st3 st4">Research Paper Template</text>
<path class="st5" d="M48,110h204c4.4,0,8,3.6,8,8v144c0,4.4-3.6,8-8,8H48c-4.4,0-8-3.6-8-8V118C40,113.6,43.6,110,48,110z"/>
</svg>
